<?xml version="1.0" encoding="UTF-8"?>
<!DOCTYPE svg PUBLIC "-//W3C//DTD SVG 1.1//EN" "http://www.w3.org/Graphics/SVG/1.1/DTD/svg11.dtd">
<svg xmlns="http://www.w3.org/2000/svg" version="1.1" width="64px" height="64px" style="shape-rendering:geometricPrecision; text-rendering:geometricPrecision; image-rendering:optimizeQuality; fill-rule:evenodd; clip-rule:evenodd" xmlns:xlink="http://www.w3.org/1999/xlink">
<g><path style="opacity:0.156" fill="#0a0905" d="M 32.5,-0.5 C 33.5,-0.5 34.5,-0.5 35.5,-0.5C 35.5,1.5 35.5,3.5 35.5,5.5C 35.8417,6.33825 36.5084,6.67158 37.5,6.5C 36.791,7.40397 35.791,7.73731 34.5,7.5C 34.7989,5.39605 34.4656,3.39605 33.5,1.5C 32.8933,1.62358 32.56,1.95691 32.5,2.5C 32.1667,2.5 31.8333,2.5 31.5,2.5C 31.5569,1.39105 31.8902,0.391047 32.5,-0.5 Z"/></g>
<g><path style="opacity:0.796" fill="#191911" d="M 27.5,0.5 C 26.7093,2.69074 26.7093,4.69074 27.5,6.5C 27.5,6.83333 27.5,7.16667 27.5,7.5C 26.1667,7.83333 24.8333,8.16667 23.5,8.5C 22.8333,8.16667 22.1667,7.83333 21.5,7.5C 21.369,6.76109 21.5357,6.09442 22,5.5C 22.6708,6.25244 23.5041,6.58577 24.5,6.5C 24.8333,5.16667 25.1667,3.83333 25.5,2.5C 26.1667,1.83333 26.8333,1.16667 27.5,0.5 Z"/></g>
<g><path style="opacity:0.304" fill="#0b0b05" d="M 25.5,-0.5 C 26.8333,-0.5 28.1667,-0.5 29.5,-0.5C 29.9321,0.709515 30.5987,1.70951 31.5,2.5C 31.5,3.5 31.5,4.5 31.5,5.5C 30.8333,4.83333 30.1667,4.16667 29.5,3.5C 29.5,3.16667 29.5,2.83333 29.5,2.5C 29.1667,1.5 28.5,0.833333 27.5,0.5C 26.8333,1.16667 26.1667,1.83333 25.5,2.5C 25.5,1.5 25.5,0.5 25.5,-0.5 Z"/></g>
<g><path style="opacity:0.13" fill="#020301" d="M 41.5,6.5 C 41.1667,6.5 40.8333,6.5 40.5,6.5C 40.631,5.76109 40.4643,5.09442 40,4.5C 39.2917,5.38053 38.4584,6.0472 37.5,6.5C 36.5084,6.67158 35.8417,6.33825 35.5,5.5C 37.2972,4.27024 39.2972,3.60357 41.5,3.5C 41.5,4.5 41.5,5.5 41.5,6.5 Z"/></g>
<g><path style="opacity:0.075" fill="#060603" d="M 24.5,6.5 C 23.5041,6.58577 22.6708,6.25244 22,5.5C 21.5357,6.09442 21.369,6.76109 21.5,7.5C 19.9519,7.17876 19.2852,6.17876 19.5,4.5C 21.698,4.12012 23.3646,4.78679 24.5,6.5 Z"/></g>
<g><path style="opacity:0.922" fill="#605e41" d="M 27.5,0.5 C 28.5,0.833333 29.1667,1.5 29.5,2.5C 28.3263,3.51369 27.6596,4.84702 27.5,6.5C 26.7093,4.69074 26.7093,2.69074 27.5,0.5 Z"/></g>
<g><path style="opacity:1" fill="#8f915c" d="M 31.5,2.5 C 31.8333,2.5 32.1667,2.5 32.5,2.5C 33.7416,4.38879 33.7416,6.38879 32.5,8.5C 31.596,7.79105 31.2627,6.79105 31.5,5.5C 31.5,4.5 31.5,3.5 31.5,2.5 Z"/></g>
<g><path style="opacity:0.09" fill="#110d03" d="M 39.5,7.5 C 39.5,6.83333 39.8333,6.5 40.5,6.5C 40.8333,6.5 41.1667,6.5 41.5,6.5C 42.5,6.5 43.5,6.5 44.5,6.5C 43.1442,11.3856 45.1442,14.5523 50.5,16C 51.2524,16.6708 51.5858,17.5041 51.5,18.5C 49.8583,16.9192 47.8583,16.2525 45.5,16.5C 45.2624,14.5956 44.2624,13.2623 42.5,12.5C 41.791,11.596 40.791,11.2627 39.5,11.5C 40.172,10.7326 41.0053,10.0659 42,9.5C 42.6917,8.56323 42.525,7.89657 41.5,7.5C 40.8333,7.5 40.1667,7.5 39.5,7.5 Z"/></g>
<g><path style="opacity:1" fill="#a3a86c" d="M 29.5,2.5 C 29.5,2.83333 29.5,3.16667 29.5,3.5C 29.5751,6.20616 29.9084,8.87283 30.5,11.5C 29.8333,11.5 29.5,11.1667 29.5,10.5C 29.0679,9.29049 28.4013,8.29049 27.5,7.5C 27.5,7.16667 27.5,6.83333 27.5,6.5C 27.6596,4.84702 28.3263,3.51369 29.5,2.5 Z"/></g>
<g><path style="opacity:1" fill="#172113" d="M 40.5,6.5 C 39.8333,6.5 39.5,6.83333 39.5,7.5C 36.8333,8.16667 35.1667,9.83333 34.5,12.5C 33.5084,12.6716 32.8417,12.3382 32.5,11.5C 33.6005,10.3951 34.2671,9.06181 34.5,7.5C 35.791,7.73731 36.791,7.40397 37.5,6.5C 38.4584,6.0472 39.2917,5.38053 40,4.5C 40.4643,5.09442 40.631,5.76109 40.5,6.5 Z"/></g>
<g><path style="opacity:1" fill="#364f28" d="M 39.5,7.5 C 40.1667,7.5 40.8333,7.5 41.5,7.5C 40.3998,8.55847 39.0664,9.3918 37.5,10C 38.056,10.3826 38.3893,10.8826 38.5,11.5C 37.5,12.1667 36.5,12.8333 35.5,13.5C 35.5,12.8333 35.1667,12.5 34.5,12.5C 35.1667,9.83333 36.8333,8.16667 39.5,7.5 Z"/></g>
<g><path style="opacity:1" fill="#263618" d="M 41.5,7.5 C 42.525,7.89657 42.6917,8.56323 42,9.5C 41.0053,10.0659 40.172,10.7326 39.5,11.5C 39.1667,11.5 38.8333,11.5 38.5,11.5C 38.3893,10.8826 38.056,10.3826 37.5,10C 39.0664,9.3918 40.3998,8.55847 41.5,7.5 Z"/></g>
<g><path style="opacity:0.071" fill="#1f1509" d="M 19.5,9.5 C 19.3932,11.3786 19.8932,11.7119 21,10.5C 21.7172,11.0442 22.2172,11.7109 22.5,12.5C 21.5084,12.3284 20.8417,12.6618 20.5,13.5C 19.5,14.1667 18.5,14.8333 17.5,15.5C 17.5,15.1667 17.5,14.8333 17.5,14.5C 18.0241,12.6943 18.6908,11.0276 19.5,9.5 Z"/></g>
<g><path style="opacity:0.28" fill="#0d0804" d="M 21.5,7.5 C 22.1667,7.83333 22.8333,8.16667 23.5,8.5C 23.5,9.83333 23.5,11.1667 23.5,12.5C 23.1667,12.5 22.8333,12.5 22.5,12.5C 22.2172,11.7109 21.7172,11.0442 21,10.5C 19.8932,11.7119 19.3932,11.3786 19.5,9.5C 20.8333,9.5 21.5,8.83333 21.5,7.5 Z"/></g>
<g><path style="opacity:1" fill="#6d7949" d="M 23.5,8.5 C 24.8333,8.16667 26.1667,7.83333 27.5,7.5C 28.4013,8.29049 29.0679,9.29049 29.5,10.5C 27.0882,10.6941 26.0882,12.0274 26.5,14.5C 26.5,15.1667 26.5,15.8333 26.5,16.5C 24.4305,16.4173 24.0972,15.4173 25.5,13.5C 25.1992,11.5784 24.5325,9.91175 23.5,8.5 Z"/></g>
<g><path style="opacity:1" fill="#6c7f44" d="M 29.5,3.5 C 30.1667,4.16667 30.8333,4.83333 31.5,5.5C 31.2627,6.79105 31.596,7.79105 32.5,8.5C 31.8902,9.39105 31.5569,10.391 31.5,11.5C 31.1667,11.5 30.8333,11.5 30.5,11.5C 29.9084,8.87283 29.5751,6.20616 29.5,3.5 Z"/></g>
<g><path style="opacity:1" fill="#86915b" d="M 29.5,10.5 C 29.5,11.1667 29.8333,11.5 30.5,11.5C 30.5,12.5 30.5,13.5 30.5,14.5C 29.1667,15.8333 27.8333,15.8333 26.5,14.5C 26.0882,12.0274 27.0882,10.6941 29.5,10.5 Z"/></g>
<g><path style="opacity:1" fill="#515e31" d="M 32.5,2.5 C 32.56,1.95691 32.8933,1.62358 33.5,1.5C 34.4656,3.39605 34.7989,5.39605 34.5,7.5C 34.2671,9.06181 33.6005,10.3951 32.5,11.5C 32.1667,11.5 31.8333,11.5 31.5,11.5C 31.5569,10.391 31.8902,9.39105 32.5,8.5C 33.7416,6.38879 33.7416,4.38879 32.5,2.5 Z"/></g>
<g><path style="opacity:1" fill="#292c17" d="M 38.5,11.5 C 38.1667,12.8333 37.8333,14.1667 37.5,15.5C 37.5,15.8333 37.5,16.1667 37.5,16.5C 36.1678,18.1377 34.8345,19.8044 33.5,21.5C 32.1667,21.1667 30.8333,20.8333 29.5,20.5C 28.5,20.1667 27.8333,19.5 27.5,18.5C 28.791,18.7373 29.791,18.404 30.5,17.5C 32.4799,16.5161 34.1466,15.1827 35.5,13.5C 36.5,12.8333 37.5,12.1667 38.5,11.5 Z"/></g>
<g><path style="opacity:1" fill="#322716" d="M 38.5,11.5 C 38.8333,11.5 39.1667,11.5 39.5,11.5C 40.791,11.2627 41.791,11.596 42.5,12.5C 40.8784,13.1224 39.5451,14.1224 38.5,15.5C 38.1667,15.5 37.8333,15.5 37.5,15.5C 37.8333,14.1667 38.1667,12.8333 38.5,11.5 Z"/></g>
<g><path style="opacity:1" fill="#454223" d="M 23.5,8.5 C 24.5325,9.91175 25.1992,11.5784 25.5,13.5C 24.0972,15.4173 24.4305,16.4173 26.5,16.5C 26.8333,17.1667 27.1667,17.8333 27.5,18.5C 26.1667,18.5 24.8333,18.5 23.5,18.5C 23.5,16.5 23.5,14.5 23.5,12.5C 23.5,11.1667 23.5,9.83333 23.5,8.5 Z"/></g>
<g><path style="opacity:1" fill="#44582f" d="M 30.5,11.5 C 30.8333,11.5 31.1667,11.5 31.5,11.5C 31.8333,11.5 32.1667,11.5 32.5,11.5C 32.8417,12.3382 33.5084,12.6716 34.5,12.5C 35.1667,12.5 35.5,12.8333 35.5,13.5C 34.1466,15.1827 32.4799,16.5161 30.5,17.5C 30.5,16.5 30.5,15.5 30.5,14.5C 30.5,13.5 30.5,12.5 30.5,11.5 Z"/></g>
<g><path style="opacity:1" fill="#754012" d="M 42.5,12.5 C 44.2624,13.2623 45.2624,14.5956 45.5,16.5C 45.5,17.5 45.5,18.5 45.5,19.5C 44.8333,19.5 44.1667,19.5 43.5,19.5C 43.6162,16.0897 41.9496,14.7564 38.5,15.5C 39.5451,14.1224 40.8784,13.1224 42.5,12.5 Z"/></g>
<g><path style="opacity:1" fill="#c1781a" d="M 20.5,13.5 C 20.8417,12.6618 21.5084,12.3284 22.5,12.5C 22.8333,12.5 23.1667,12.5 23.5,12.5C 23.5,14.5 23.5,16.5 23.5,18.5C 22.5,18.5 21.5,18.5 20.5,18.5C 21.0965,16.602 21.0965,14.9354 20.5,13.5 Z"/></g>
<g><path style="opacity:1" fill="#536b36" d="M 26.5,14.5 C 27.8333,15.8333 29.1667,15.8333 30.5,14.5C 30.5,15.5 30.5,16.5 30.5,17.5C 29.791,18.404 28.791,18.7373 27.5,18.5C 27.1667,17.8333 26.8333,17.1667 26.5,16.5C 26.5,15.8333 26.5,15.1667 26.5,14.5 Z"/></g>
<g><path style="opacity:0.416" fill="#1e170b" d="M 17.5,14.5 C 17.5,14.8333 17.5,15.1667 17.5,15.5C 17.5,15.8333 17.5,16.1667 17.5,16.5C 15.8333,17.5 14.5,18.8333 13.5,20.5C 12.5386,22.2646 12.2053,24.2646 12.5,26.5C 11.8333,26.5 11.5,26.8333 11.5,27.5C 10.1667,28.1667 9.16667,29.1667 8.5,30.5C 8.16667,30.5 7.83333,30.5 7.5,30.5C 7.5,30.1667 7.5,29.8333 7.5,29.5C 7.74962,28.0779 8.58296,27.0779 10,26.5C 10.2158,21.109 12.7158,17.109 17.5,14.5 Z"/></g>
<g><path style="opacity:1" fill="#a96519" d="M 37.5,16.5 C 37.5,16.1667 37.5,15.8333 37.5,15.5C 37.8333,15.5 38.1667,15.5 38.5,15.5C 41.9496,14.7564 43.6162,16.0897 43.5,19.5C 43.1667,19.5 42.8333,19.5 42.5,19.5C 42.1583,18.6618 41.4916,18.3284 40.5,18.5C 40.1788,16.9519 39.1788,16.2852 37.5,16.5 Z"/></g>
<g><path style="opacity:1" fill="#8c7e0f" d="M 45.5,16.5 C 47.8583,16.2525 49.8583,16.9192 51.5,18.5C 51.5,19.1667 51.5,19.8333 51.5,20.5C 50.8333,20.5 50.1667,20.5 49.5,20.5C 48.4324,19.5655 47.099,19.2322 45.5,19.5C 45.5,18.5 45.5,17.5 45.5,16.5 Z"/></g>
<g><path style="opacity:1" fill="#dda129" d="M 20.5,13.5 C 21.0965,14.9354 21.0965,16.602 20.5,18.5C 20.5,18.8333 20.5,19.1667 20.5,19.5C 19.8333,19.5 19.5,19.8333 19.5,20.5C 19.1667,20.5 18.8333,20.5 18.5,20.5C 18.33,19.1779 18.6634,18.0113 19.5,17C 18.9056,16.5357 18.2389,16.369 17.5,16.5C 17.5,16.1667 17.5,15.8333 17.5,15.5C 18.5,14.8333 19.5,14.1667 20.5,13.5 Z"/></g>
<g><path style="opacity:1" fill="#be932a" d="M 37.5,16.5 C 39.1788,16.2852 40.1788,16.9519 40.5,18.5C 37.8049,18.5627 36.8049,19.5627 37.5,21.5C 37.1667,21.5 36.8333,21.5 36.5,21.5C 35.5,21.5 34.5,21.5 33.5,21.5C 34.8345,19.8044 36.1678,18.1377 37.5,16.5 Z"/></g>
<g><path style="opacity:1" fill="#efbd42" d="M 17.5,16.5 C 18.2389,16.369 18.9056,16.5357 19.5,17C 18.6634,18.0113 18.33,19.1779 18.5,20.5C 18.1667,21.1667 17.8333,21.8333 17.5,22.5C 14.6314,25.512 13.2981,24.8453 13.5,20.5C 14.5,18.8333 15.8333,17.5 17.5,16.5 Z"/></g>
<g><path style="opacity:1" fill="#8c0e17" d="M 23.5,19.5 C 26.4701,19.7458 27.8034,21.4124 27.5,24.5C 27.5,24.8333 27.5,25.1667 27.5,25.5C 26.5284,23.5069 25.1951,23.1736 23.5,24.5C 23.5,23.8333 23.5,23.1667 23.5,22.5C 23.5,21.8333 23.5,21.1667 23.5,20.5C 23.5,20.1667 23.5,19.8333 23.5,19.5 Z"/></g>
<g><path style="opacity:1" fill="#94480f" d="M 40.5,18.5 C 41.4916,18.3284 42.1583,18.6618 42.5,19.5C 41.6618,19.8417 41.3284,20.5084 41.5,21.5C 40.5,21.5 39.5,21.5 38.5,21.5C 38.1667,21.5 37.8333,21.5 37.5,21.5C 36.8049,19.5627 37.8049,18.5627 40.5,18.5 Z"/></g>
<g><path style="opacity:1" fill="#732116" d="M 42.5,19.5 C 42.8333,19.5 43.1667,19.5 43.5,19.5C 44.1667,19.5 44.8333,19.5 45.5,19.5C 47.099,19.2322 48.4324,19.5655 49.5,20.5C 47.3023,20.4088 46.9689,21.0755 48.5,22.5C 47.8333,22.5 47.1667,22.5 46.5,22.5C 45.7893,20.1582 44.456,19.8249 42.5,21.5C 42.1667,21.5 41.8333,21.5 41.5,21.5C 41.3284,20.5084 41.6618,19.8417 42.5,19.5 Z"/></g>
<g><path style="opacity:1" fill="#e19176" d="M 20.5,19.5 C 21.5,19.5 22.5,19.5 23.5,19.5C 23.5,19.8333 23.5,20.1667 23.5,20.5C 22.325,20.281 21.325,20.6143 20.5,21.5C 20.9569,22.2975 21.6236,22.6309 22.5,22.5C 21.791,23.404 20.791,23.7373 19.5,23.5C 19.5,22.5 19.5,21.5 19.5,20.5C 19.5,19.8333 19.8333,19.5 20.5,19.5 Z"/></g>
<g><path style="opacity:1" fill="#f8ddd2" d="M 23.5,20.5 C 23.5,21.1667 23.5,21.8333 23.5,22.5C 23.1667,22.5 22.8333,22.5 22.5,22.5C 21.6236,22.6309 20.9569,22.2975 20.5,21.5C 21.325,20.6143 22.325,20.281 23.5,20.5 Z"/></g>
<g><path style="opacity:1" fill="#7d1416" d="M 20.5,19.5 C 20.5,19.1667 20.5,18.8333 20.5,18.5C 21.5,18.5 22.5,18.5 23.5,18.5C 24.8333,18.5 26.1667,18.5 27.5,18.5C 27.8333,19.5 28.5,20.1667 29.5,20.5C 29.5,20.8333 29.5,21.1667 29.5,21.5C 29.573,23.0269 28.9063,24.0269 27.5,24.5C 27.8034,21.4124 26.4701,19.7458 23.5,19.5C 22.5,19.5 21.5,19.5 20.5,19.5 Z"/></g>
<g><path style="opacity:1" fill="#604712" d="M 29.5,21.5 C 29.5,21.1667 29.5,20.8333 29.5,20.5C 30.8333,20.8333 32.1667,21.1667 33.5,21.5C 32.3995,22.6049 31.7329,23.9382 31.5,25.5C 31.5,26.1667 31.1667,26.5 30.5,26.5C 30.5,26.1667 30.5,25.8333 30.5,25.5C 30.7678,23.901 30.4345,22.5676 29.5,21.5 Z"/></g>
<g><path style="opacity:1" fill="#321108" d="M 38.5,21.5 C 39.5,21.5 40.5,21.5 41.5,21.5C 41.8333,21.5 42.1667,21.5 42.5,21.5C 42.5,21.8333 42.5,22.1667 42.5,22.5C 41.6618,22.8417 41.3284,23.5084 41.5,24.5C 40.1667,23.8333 39.1667,22.8333 38.5,21.5 Z"/></g>
<g><path style="opacity:1" fill="#a92323" d="M 46.5,22.5 C 44.8212,22.2852 43.8212,22.9519 43.5,24.5C 42.6618,24.1583 42.3284,23.4916 42.5,22.5C 42.5,22.1667 42.5,21.8333 42.5,21.5C 44.456,19.8249 45.7893,20.1582 46.5,22.5 Z"/></g>
<g><path style="opacity:1" fill="#cebd13" d="M 33.5,21.5 C 34.5,21.5 35.5,21.5 36.5,21.5C 36.5,22.5 36.5,23.5 36.5,24.5C 36.5,25.1667 36.5,25.8333 36.5,26.5C 36.1667,26.5 35.8333,26.5 35.5,26.5C 35.1667,25.5 34.5,24.8333 33.5,24.5C 32.8333,24.8333 32.1667,25.1667 31.5,25.5C 31.7329,23.9382 32.3995,22.6049 33.5,21.5 Z"/></g>
<g><path style="opacity:1" fill="#a24336" d="M 49.5,20.5 C 50.1667,20.5 50.8333,20.5 51.5,20.5C 53.0808,22.1417 53.7475,24.1417 53.5,26.5C 53.6716,27.4916 53.3382,28.1583 52.5,28.5C 52.5,26.8333 52.5,25.1667 52.5,23.5C 51.5,23.5 50.5,23.5 49.5,23.5C 49.5,22.8333 49.1667,22.5 48.5,22.5C 46.9689,21.0755 47.3023,20.4088 49.5,20.5 Z"/></g>
<g><path style="opacity:1" fill="#6b0b10" d="M 29.5,21.5 C 30.4345,22.5676 30.7678,23.901 30.5,25.5C 29.609,26.1098 28.609,26.4431 27.5,26.5C 27.5,26.1667 27.5,25.8333 27.5,25.5C 27.5,25.1667 27.5,24.8333 27.5,24.5C 28.9063,24.0269 29.573,23.0269 29.5,21.5 Z"/></g>
<g><path style="opacity:1" fill="#bfb11a" d="M 36.5,21.5 C 36.8333,21.5 37.1667,21.5 37.5,21.5C 37.8333,21.5 38.1667,21.5 38.5,21.5C 39.1667,22.8333 40.1667,23.8333 41.5,24.5C 41.5,24.8333 41.5,25.1667 41.5,25.5C 41.5,25.8333 41.5,26.1667 41.5,26.5C 40.8333,26.1667 40.1667,25.8333 39.5,25.5C 38.609,24.8902 37.609,24.5569 36.5,24.5C 36.5,23.5 36.5,22.5 36.5,21.5 Z"/></g>
<g><path style="opacity:1" fill="#e9ac2b" d="M 13.5,20.5 C 13.2981,24.8453 14.6314,25.512 17.5,22.5C 17.5,23.8333 17.5,25.1667 17.5,26.5C 15.8333,26.5 14.1667,26.5 12.5,26.5C 12.2053,24.2646 12.5386,22.2646 13.5,20.5 Z"/></g>
<g><path style="opacity:1" fill="#da613e" d="M 22.5,22.5 C 22.8333,22.5 23.1667,22.5 23.5,22.5C 23.5,23.1667 23.5,23.8333 23.5,24.5C 23.5,24.8333 23.5,25.1667 23.5,25.5C 22.8333,25.8333 22.1667,26.1667 21.5,26.5C 19.9519,26.1788 19.2852,25.1788 19.5,23.5C 20.791,23.7373 21.791,23.404 22.5,22.5 Z"/></g>
<g><path style="opacity:1" fill="#e99c7e" d="M 46.5,22.5 C 46.7373,23.791 46.404,24.791 45.5,25.5C 44.8333,25.1667 44.1667,24.8333 43.5,24.5C 43.8212,22.9519 44.8212,22.2852 46.5,22.5 Z"/></g>
<g><path style="opacity:1" fill="#a41c1f" d="M 46.5,22.5 C 47.1667,22.5 47.8333,22.5 48.5,22.5C 49.1667,22.5 49.5,22.8333 49.5,23.5C 48.6618,23.8417 48.3284,24.5084 48.5,25.5C 47.3478,26.625 46.3478,26.625 45.5,25.5C 46.404,24.791 46.7373,23.791 46.5,22.5 Z"/></g>
<g><path style="opacity:0.671" fill="#21150d" d="M 51.5,18.5 C 54.2959,20.7146 55.2959,23.3813 54.5,26.5C 54.1667,26.5 53.8333,26.5 53.5,26.5C 53.7475,24.1417 53.0808,22.1417 51.5,20.5C 51.5,19.8333 51.5,19.1667 51.5,18.5 Z"/></g>
<g><path style="opacity:1" fill="#bc251a" d="M 18.5,20.5 C 18.8333,20.5 19.1667,20.5 19.5,20.5C 19.5,21.5 19.5,22.5 19.5,23.5C 19.2852,25.1788 19.9519,26.1788 21.5,26.5C 20.791,27.404 19.791,27.7373 18.5,27.5C 17.8333,27.5 17.5,27.1667 17.5,26.5C 17.5,25.1667 17.5,23.8333 17.5,22.5C 17.8333,21.8333 18.1667,21.1667 18.5,20.5 Z"/></g>
<g><path style="opacity:1" fill="#760010" d="M 27.5,25.5 C 27.5,25.8333 27.5,26.1667 27.5,26.5C 26.5,26.5 25.5,26.5 24.5,26.5C 24.1667,26.5 23.8333,26.5 23.5,26.5C 23.5,26.1667 23.5,25.8333 23.5,25.5C 23.5,25.1667 23.5,24.8333 23.5,24.5C 25.1951,23.1736 26.5284,23.5069 27.5,25.5 Z"/></g>
<g><path style="opacity:1" fill="#940c0e" d="M 49.5,23.5 C 50.5,23.5 51.5,23.5 52.5,23.5C 52.5,25.1667 52.5,26.8333 52.5,28.5C 51.1667,28.5 49.8333,28.5 48.5,28.5C 48.5,27.5 48.5,26.5 48.5,25.5C 48.3284,24.5084 48.6618,23.8417 49.5,23.5 Z"/></g>
<g><path style="opacity:1" fill="#540109" d="M 30.5,25.5 C 30.5,25.8333 30.5,26.1667 30.5,26.5C 30.5,26.8333 30.5,27.1667 30.5,27.5C 29.4412,29.5554 27.7746,30.8888 25.5,31.5C 25.3713,29.7839 25.038,28.1172 24.5,26.5C 25.5,26.5 26.5,26.5 27.5,26.5C 28.609,26.4431 29.609,26.1098 30.5,25.5 Z"/></g>
<g><path style="opacity:1" fill="#730a11" d="M 42.5,22.5 C 42.3284,23.4916 42.6618,24.1583 43.5,24.5C 44.1667,24.8333 44.8333,25.1667 45.5,25.5C 46.3478,26.625 47.3478,26.625 48.5,25.5C 48.5,26.5 48.5,27.5 48.5,28.5C 49.8333,28.5 51.1667,28.5 52.5,28.5C 52.5,28.8333 52.5,29.1667 52.5,29.5C 49.5794,29.7174 46.9128,29.0507 44.5,27.5C 44.1667,27.5 43.8333,27.5 43.5,27.5C 43.1667,26.5 42.5,25.8333 41.5,25.5C 41.5,25.1667 41.5,24.8333 41.5,24.5C 41.3284,23.5084 41.6618,22.8417 42.5,22.5 Z"/></g>
<g><path style="opacity:1" fill="#ebdc50" d="M 11.5,27.5 C 13.4147,27.2155 15.0813,27.5489 16.5,28.5C 15.5489,29.9187 15.2155,31.5853 15.5,33.5C 14.609,34.1098 13.609,34.4431 12.5,34.5C 13.355,33.4693 14.0217,32.3026 14.5,31C 14.1639,29.9701 13.4972,29.4701 12.5,29.5C 11.6618,29.1583 11.3284,28.4916 11.5,27.5 Z"/></g>
<g><path style="opacity:1" fill="#730111" d="M 23.5,26.5 C 23.8333,26.5 24.1667,26.5 24.5,26.5C 25.038,28.1172 25.3713,29.7839 25.5,31.5C 25.5,31.8333 25.5,32.1667 25.5,32.5C 25.1667,32.5 24.8333,32.5 24.5,32.5C 24.5,31.1667 23.8333,30.5 22.5,30.5C 22.4326,29.0413 22.7659,27.7079 23.5,26.5 Z"/></g>
<g><path style="opacity:1" fill="#362a0c" d="M 30.5,27.5 C 30.5,28.8333 30.5,30.1667 30.5,31.5C 29.0813,32.4511 27.4147,32.7845 25.5,32.5C 25.5,32.1667 25.5,31.8333 25.5,31.5C 27.7746,30.8888 29.4412,29.5554 30.5,27.5 Z"/></g>
<g><path style="opacity:1" fill="#dfce29" d="M 33.5,24.5 C 33.4809,26.0603 33.1476,27.5603 32.5,29C 33.1765,30.6833 34.1765,30.8499 35.5,29.5C 35.5,30.1667 35.5,30.8333 35.5,31.5C 35.5,32.1667 35.5,32.8333 35.5,33.5C 34.8333,33.5 34.5,33.8333 34.5,34.5C 33.391,34.4431 32.391,34.1098 31.5,33.5C 31.6716,32.5084 31.3382,31.8417 30.5,31.5C 30.5,30.1667 30.5,28.8333 30.5,27.5C 30.5,27.1667 30.5,26.8333 30.5,26.5C 31.1667,26.5 31.5,26.1667 31.5,25.5C 32.1667,25.1667 32.8333,24.8333 33.5,24.5 Z"/></g>
<g><path style="opacity:1" fill="#cbc211" d="M 35.5,26.5 C 35.8333,26.5 36.1667,26.5 36.5,26.5C 37.1386,27.0968 37.472,27.9302 37.5,29C 37.3158,30.3756 36.6491,31.2089 35.5,31.5C 35.5,30.8333 35.5,30.1667 35.5,29.5C 35.5,28.5 35.5,27.5 35.5,26.5 Z"/></g>
<g><path style="opacity:1" fill="#beb206" d="M 36.5,24.5 C 37.609,24.5569 38.609,24.8902 39.5,25.5C 38.9329,27.9686 38.9329,30.302 39.5,32.5C 38.0413,32.4326 36.7079,32.7659 35.5,33.5C 35.5,32.8333 35.5,32.1667 35.5,31.5C 36.6491,31.2089 37.3158,30.3756 37.5,29C 37.472,27.9302 37.1386,27.0968 36.5,26.5C 36.5,25.8333 36.5,25.1667 36.5,24.5 Z"/></g>
<g><path style="opacity:1" fill="#3d0806" d="M 44.5,27.5 C 46.9128,29.0507 49.5794,29.7174 52.5,29.5C 53.1667,29.5 53.5,29.8333 53.5,30.5C 51.6203,30.2291 50.287,30.8958 49.5,32.5C 49.1667,32.5 48.8333,32.5 48.5,32.5C 46.4446,31.4412 45.1112,29.7746 44.5,27.5 Z"/></g>
<g><path style="opacity:1" fill="#b59928" d="M 11.5,27.5 C 11.5,26.8333 11.8333,26.5 12.5,26.5C 14.1667,26.5 15.8333,26.5 17.5,26.5C 17.5,27.1667 17.8333,27.5 18.5,27.5C 18.8333,28.1667 19.1667,28.8333 19.5,29.5C 18.8333,29.8333 18.1667,30.1667 17.5,30.5C 17.1667,29.8333 16.8333,29.1667 16.5,28.5C 15.0813,27.5489 13.4147,27.2155 11.5,27.5 Z"/></g>
<g><path style="opacity:1" fill="#990b17" d="M 23.5,25.5 C 23.5,25.8333 23.5,26.1667 23.5,26.5C 22.7659,27.7079 22.4326,29.0413 22.5,30.5C 21.8333,30.5 21.1667,30.5 20.5,30.5C 19.8333,30.5 19.5,30.1667 19.5,29.5C 19.1667,28.8333 18.8333,28.1667 18.5,27.5C 19.791,27.7373 20.791,27.404 21.5,26.5C 22.1667,26.1667 22.8333,25.8333 23.5,25.5 Z"/></g>
<g><path style="opacity:1" fill="#f2e598" d="M 33.5,24.5 C 34.5,24.8333 35.1667,25.5 35.5,26.5C 35.5,27.5 35.5,28.5 35.5,29.5C 34.1765,30.8499 33.1765,30.6833 32.5,29C 33.1476,27.5603 33.4809,26.0603 33.5,24.5 Z"/></g>
<g><path style="opacity:0.165" fill="#191106" d="M 53.5,26.5 C 53.8333,26.5 54.1667,26.5 54.5,26.5C 55.4767,28.8209 56.4767,31.1542 57.5,33.5C 57.1667,33.5 56.8333,33.5 56.5,33.5C 55.8333,32.1667 54.8333,31.1667 53.5,30.5C 53.5,29.8333 53.1667,29.5 52.5,29.5C 52.5,29.1667 52.5,28.8333 52.5,28.5C 53.3382,28.1583 53.6716,27.4916 53.5,26.5 Z"/></g>
<g><path style="opacity:1" fill="#d5c661" d="M 11.5,27.5 C 11.3284,28.4916 11.6618,29.1583 12.5,29.5C 11.8333,30.8333 10.8333,31.8333 9.5,32.5C 9.67158,31.5084 9.33825,30.8417 8.5,30.5C 9.16667,29.1667 10.1667,28.1667 11.5,27.5 Z"/></g>
<g><path style="opacity:1" fill="#981811" d="M 20.5,30.5 C 21.1667,30.5 21.8333,30.5 22.5,30.5C 23.8333,30.5 24.5,31.1667 24.5,32.5C 23.8333,32.5 23.5,32.8333 23.5,33.5C 23.1667,33.5 22.8333,33.5 22.5,33.5C 21.8333,33.1667 21.1667,32.8333 20.5,32.5C 20.5,31.8333 20.5,31.1667 20.5,30.5 Z"/></g>
<g><path style="opacity:1" fill="#a2a312" d="M 39.5,25.5 C 40.1667,25.8333 40.8333,26.1667 41.5,26.5C 41.9746,29.0821 41.3079,31.0821 39.5,32.5C 38.9329,30.302 38.9329,27.9686 39.5,25.5 Z"/></g>
<g><path style="opacity:1" fill="#a08d19" d="M 41.5,25.5 C 42.5,25.8333 43.1667,26.5 43.5,27.5C 43.6061,30.0786 42.9395,32.412 41.5,34.5C 39.1667,34.5 36.8333,34.5 34.5,34.5C 34.5,33.8333 34.8333,33.5 35.5,33.5C 36.7079,32.7659 38.0413,32.4326 39.5,32.5C 41.3079,31.0821 41.9746,29.0821 41.5,26.5C 41.5,26.1667 41.5,25.8333 41.5,25.5 Z"/></g>
<g><path style="opacity:1" fill="#b5721b" d="M 53.5,30.5 C 54.8333,31.1667 55.8333,32.1667 56.5,33.5C 56.5,34.5 56.5,35.5 56.5,36.5C 55.8485,35.9094 55.1818,35.2427 54.5,34.5C 52.9291,35.3094 51.2624,35.6427 49.5,35.5C 49.5,34.5 49.5,33.5 49.5,32.5C 50.287,30.8958 51.6203,30.2291 53.5,30.5 Z"/></g>
<g><path style="opacity:1" fill="#f4eabb" d="M 12.5,29.5 C 13.4972,29.4701 14.1639,29.9701 14.5,31C 14.0217,32.3026 13.355,33.4693 12.5,34.5C 12.5,35.1667 12.1667,35.5 11.5,35.5C 10.5,35.5 9.5,35.5 8.5,35.5C 8.26269,34.209 8.59603,33.209 9.5,32.5C 10.8333,31.8333 11.8333,30.8333 12.5,29.5 Z"/></g>
<g><path style="opacity:1" fill="#d2a029" d="M 30.5,31.5 C 31.3382,31.8417 31.6716,32.5084 31.5,33.5C 30.1667,33.5 28.8333,33.5 27.5,33.5C 26.8333,33.5 26.1667,33.5 25.5,33.5C 24.8333,33.5 24.1667,33.5 23.5,33.5C 23.5,32.8333 23.8333,32.5 24.5,32.5C 24.8333,32.5 25.1667,32.5 25.5,32.5C 27.4147,32.7845 29.0813,32.4511 30.5,31.5 Z"/></g>
<g><path style="opacity:1" fill="#160402" d="M 43.5,27.5 C 43.8333,27.5 44.1667,27.5 44.5,27.5C 45.1112,29.7746 46.4446,31.4412 48.5,32.5C 48.5,32.8333 48.5,33.1667 48.5,33.5C 47.8333,34.1667 47.1667,34.8333 46.5,35.5C 45.4324,34.5655 44.099,34.2322 42.5,34.5C 42.1667,34.5 41.8333,34.5 41.5,34.5C 42.9395,32.412 43.6061,30.0786 43.5,27.5 Z"/></g>
<g><path style="opacity:1" fill="#e3d865" d="M 7.5,30.5 C 7.83333,30.5 8.16667,30.5 8.5,30.5C 9.33825,30.8417 9.67158,31.5084 9.5,32.5C 8.59603,33.209 8.26269,34.209 8.5,35.5C 9.5,35.5 10.5,35.5 11.5,35.5C 10.791,36.404 9.79105,36.7373 8.5,36.5C 7.54885,35.0813 7.21552,33.4147 7.5,31.5C 7.5,31.1667 7.5,30.8333 7.5,30.5 Z"/></g>
<g><path style="opacity:1" fill="#caaa1d" d="M 19.5,29.5 C 19.5,30.1667 19.8333,30.5 20.5,30.5C 20.5,31.1667 20.5,31.8333 20.5,32.5C 19.8897,34.4341 18.8897,36.1007 17.5,37.5C 17.5,35.1667 17.5,32.8333 17.5,30.5C 18.1667,30.1667 18.8333,29.8333 19.5,29.5 Z"/></g>
<g><path style="opacity:0.035" fill="#0d0906" d="M 7.5,29.5 C 7.5,29.8333 7.5,30.1667 7.5,30.5C 7.5,30.8333 7.5,31.1667 7.5,31.5C 6.5041,31.4142 5.67076,31.7476 5,32.5C 4.50335,34.8098 4.33669,37.1432 4.5,39.5C 4.5,41.1667 4.5,42.8333 4.5,44.5C 2.31507,40.3401 2.14841,36.0067 4,31.5C 4.81595,30.1772 5.98261,29.5106 7.5,29.5 Z"/></g>
<g><path style="opacity:1" fill="#dc8904" d="M 27.5,33.5 C 28.8333,33.5 30.1667,33.5 31.5,33.5C 32.391,34.1098 33.391,34.4431 34.5,34.5C 34.5,34.8333 34.5,35.1667 34.5,35.5C 33.8333,35.5 33.5,35.8333 33.5,36.5C 33.1667,36.5 32.8333,36.5 32.5,36.5C 31.8333,36.5 31.5,36.8333 31.5,37.5C 29.9382,37.2671 28.6049,36.6005 27.5,35.5C 27.5,34.8333 27.5,34.1667 27.5,33.5 Z"/></g>
<g><path style="opacity:1" fill="#5b0f09" d="M 42.5,34.5 C 44.099,34.2322 45.4324,34.5655 46.5,35.5C 45.8333,36.1667 45.1667,36.8333 44.5,37.5C 44.5,38.5 44.5,39.5 44.5,40.5C 45.675,40.281 46.675,40.6143 47.5,41.5C 47.1667,41.8333 46.8333,42.1667 46.5,42.5C 45.5832,41.8728 44.5832,41.5394 43.5,41.5C 43.5,40.5 43.5,39.5 43.5,38.5C 43.5674,37.0413 43.2341,35.7079 42.5,34.5 Z"/></g>
<g><path style="opacity:1" fill="#998333" d="M 20.5,32.5 C 21.1667,32.8333 21.8333,33.1667 22.5,33.5C 20.1093,35.6148 18.7759,38.2814 18.5,41.5C 16.901,41.7678 15.5676,41.4345 14.5,40.5C 15.5,40.5 16.5,40.5 17.5,40.5C 17.5,39.5 17.5,38.5 17.5,37.5C 18.8897,36.1007 19.8897,34.4341 20.5,32.5 Z"/></g>
<g><path style="opacity:1" fill="#f5c41c" d="M 34.5,35.5 C 34.5,35.1667 34.5,34.8333 34.5,34.5C 36.8333,34.5 39.1667,34.5 41.5,34.5C 40.5,35.1667 39.5,35.8333 38.5,36.5C 38.5,36.8333 38.5,37.1667 38.5,37.5C 37.4676,39.3784 36.1343,41.0451 34.5,42.5C 33.8333,42.5 33.5,42.1667 33.5,41.5C 32.6993,39.9582 32.366,38.2915 32.5,36.5C 32.8333,36.5 33.1667,36.5 33.5,36.5C 33.56,37.0431 33.8933,37.3764 34.5,37.5C 35.7733,36.7435 35.7733,36.0768 34.5,35.5 Z"/></g>
<g><path style="opacity:1" fill="#8f4510" d="M 48.5,32.5 C 48.8333,32.5 49.1667,32.5 49.5,32.5C 49.5,33.5 49.5,34.5 49.5,35.5C 51.2624,35.6427 52.9291,35.3094 54.5,34.5C 55.1818,35.2427 55.8485,35.9094 56.5,36.5C 55.2376,39.4672 53.2376,40.1339 50.5,38.5C 49.8333,37.8333 49.1667,37.1667 48.5,36.5C 48.5,35.5 48.5,34.5 48.5,33.5C 48.5,33.1667 48.5,32.8333 48.5,32.5 Z"/></g>
<g><path style="opacity:1" fill="#d8ce27" d="M 15.5,33.5 C 15.5674,34.9587 15.2341,36.2921 14.5,37.5C 12.8333,37.5 11.1667,37.5 9.5,37.5C 8.83333,37.5 8.5,37.1667 8.5,36.5C 9.79105,36.7373 10.791,36.404 11.5,35.5C 12.1667,35.5 12.5,35.1667 12.5,34.5C 13.609,34.4431 14.609,34.1098 15.5,33.5 Z"/></g>
<g><path style="opacity:1" fill="#d6c21d" d="M 16.5,28.5 C 16.8333,29.1667 17.1667,29.8333 17.5,30.5C 17.5,32.8333 17.5,35.1667 17.5,37.5C 17.5,38.5 17.5,39.5 17.5,40.5C 16.5,40.5 15.5,40.5 14.5,40.5C 14.1667,40.5 13.8333,40.5 13.5,40.5C 14.1098,39.609 14.4431,38.609 14.5,37.5C 15.2341,36.2921 15.5674,34.9587 15.5,33.5C 15.2155,31.5853 15.5489,29.9187 16.5,28.5 Z"/></g>
<g><path style="opacity:1" fill="#fbefb0" d="M 34.5,35.5 C 35.7733,36.0768 35.7733,36.7435 34.5,37.5C 33.8933,37.3764 33.56,37.0431 33.5,36.5C 33.5,35.8333 33.8333,35.5 34.5,35.5 Z"/></g>
<g><path style="opacity:1" fill="#df9a06" d="M 41.5,34.5 C 41.8333,34.5 42.1667,34.5 42.5,34.5C 43.2341,35.7079 43.5674,37.0413 43.5,38.5C 41.9505,37.5592 40.2838,36.8925 38.5,36.5C 39.5,35.8333 40.5,35.1667 41.5,34.5 Z"/></g>
<g><path style="opacity:1" fill="#4c0a07" d="M 48.5,33.5 C 48.5,34.5 48.5,35.5 48.5,36.5C 47.5284,38.4931 46.1951,38.8264 44.5,37.5C 45.1667,36.8333 45.8333,36.1667 46.5,35.5C 47.1667,34.8333 47.8333,34.1667 48.5,33.5 Z"/></g>
<g><path style="opacity:0.325" fill="#050302" d="M 57.5,33.5 C 58.9402,34.9461 59.6068,36.7794 59.5,39C 59.4857,40.3847 59.1524,41.5514 58.5,42.5C 58.4921,39.4552 58.1587,36.4552 57.5,33.5 Z"/></g>
<g><path style="opacity:1" fill="#db8805" d="M 38.5,36.5 C 40.2838,36.8925 41.9505,37.5592 43.5,38.5C 43.5,39.5 43.5,40.5 43.5,41.5C 43.5,41.8333 43.5,42.1667 43.5,42.5C 43.1667,42.5 42.8333,42.5 42.5,42.5C 42.7373,41.209 42.404,40.209 41.5,39.5C 40.5,38.8333 39.5,38.1667 38.5,37.5C 38.5,37.1667 38.5,36.8333 38.5,36.5 Z"/></g>
<g><path style="opacity:1" fill="#a76f3e" d="M 7.5,31.5 C 7.21552,33.4147 7.54885,35.0813 8.5,36.5C 8.5,37.1667 8.83333,37.5 9.5,37.5C 10.6935,38.2719 11.6935,39.2719 12.5,40.5C 11.8333,40.5 11.1667,40.5 10.5,40.5C 8.8103,39.8969 7.3103,38.8969 6,37.5C 5.53566,38.0944 5.36899,38.7611 5.5,39.5C 5.16667,39.5 4.83333,39.5 4.5,39.5C 4.33669,37.1432 4.50335,34.8098 5,32.5C 5.67076,31.7476 6.5041,31.4142 7.5,31.5 Z"/></g>
<g><path style="opacity:1" fill="#c7bb14" d="M 9.5,37.5 C 11.1667,37.5 12.8333,37.5 14.5,37.5C 14.4431,38.609 14.1098,39.609 13.5,40.5C 13.1667,40.5 12.8333,40.5 12.5,40.5C 11.6935,39.2719 10.6935,38.2719 9.5,37.5 Z"/></g>
<g><path style="opacity:1" fill="#f8dc62" d="M 22.5,33.5 C 22.8333,33.5 23.1667,33.5 23.5,33.5C 24.1667,33.5 24.8333,33.5 25.5,33.5C 25.5,34.5 25.5,35.5 25.5,36.5C 25.7373,37.791 25.404,38.791 24.5,39.5C 24.5,38.5 24.5,37.5 24.5,36.5C 20.9319,36.7593 19.5985,38.7593 20.5,42.5C 19.5084,42.6716 18.8417,42.3382 18.5,41.5C 18.7759,38.2814 20.1093,35.6148 22.5,33.5 Z"/></g>
<g><path style="opacity:1" fill="#ffe38b" d="M 24.5,39.5 C 23.8333,40.8333 22.8333,41.8333 21.5,42.5C 21.1667,42.5 20.8333,42.5 20.5,42.5C 19.5985,38.7593 20.9319,36.7593 24.5,36.5C 24.5,37.5 24.5,38.5 24.5,39.5 Z"/></g>
<g><path style="opacity:1" fill="#fcd614" d="M 25.5,33.5 C 26.1667,33.5 26.8333,33.5 27.5,33.5C 27.5,34.1667 27.5,34.8333 27.5,35.5C 27.8333,36.8333 28.1667,38.1667 28.5,39.5C 27.8333,39.8333 27.1667,40.1667 26.5,40.5C 26.7678,38.901 26.4345,37.5676 25.5,36.5C 25.5,35.5 25.5,34.5 25.5,33.5 Z"/></g>
<g><path style="opacity:1" fill="#f1c615" d="M 27.5,35.5 C 28.6049,36.6005 29.9382,37.2671 31.5,37.5C 31.9227,39.7812 31.256,41.4479 29.5,42.5C 29.6107,41.8826 29.944,41.3826 30.5,41C 29.5842,40.7216 28.9175,40.2216 28.5,39.5C 28.1667,38.1667 27.8333,36.8333 27.5,35.5 Z"/></g>
<g><path style="opacity:1" fill="#320604" d="M 48.5,36.5 C 49.1667,37.1667 49.8333,37.8333 50.5,38.5C 50.8333,39.1667 51.1667,39.8333 51.5,40.5C 49.5,40.5 48.5,41.5 48.5,43.5C 47.1667,43.5 45.8333,43.5 44.5,43.5C 43.8333,43.5 43.5,43.1667 43.5,42.5C 43.5,42.1667 43.5,41.8333 43.5,41.5C 44.5832,41.5394 45.5832,41.8728 46.5,42.5C 46.8333,42.1667 47.1667,41.8333 47.5,41.5C 46.675,40.6143 45.675,40.281 44.5,40.5C 44.5,39.5 44.5,38.5 44.5,37.5C 46.1951,38.8264 47.5284,38.4931 48.5,36.5 Z"/></g>
<g><path style="opacity:1" fill="#511e10" d="M 56.5,33.5 C 56.8333,33.5 57.1667,33.5 57.5,33.5C 58.1587,36.4552 58.4921,39.4552 58.5,42.5C 58.1667,42.5 57.8333,42.5 57.5,42.5C 57.6567,41.1266 57.49,39.7932 57,38.5C 55.9609,39.7101 54.7942,40.7101 53.5,41.5C 52.8333,41.1667 52.1667,40.8333 51.5,40.5C 51.1667,39.8333 50.8333,39.1667 50.5,38.5C 53.2376,40.1339 55.2376,39.4672 56.5,36.5C 56.5,35.5 56.5,34.5 56.5,33.5 Z"/></g>
<g><path style="opacity:1" fill="#fbdc3e" d="M 25.5,36.5 C 26.4345,37.5676 26.7678,38.901 26.5,40.5C 25.1667,41.1667 24.1667,42.1667 23.5,43.5C 22.8333,43.5 22.1667,43.5 21.5,43.5C 21.5,43.1667 21.5,42.8333 21.5,42.5C 22.8333,41.8333 23.8333,40.8333 24.5,39.5C 25.404,38.791 25.7373,37.791 25.5,36.5 Z"/></g>
<g><path style="opacity:1" fill="#b9942c" d="M 32.5,36.5 C 32.366,38.2915 32.6993,39.9582 33.5,41.5C 32.5326,42.8062 31.1993,43.4729 29.5,43.5C 29.5,43.1667 29.5,42.8333 29.5,42.5C 31.256,41.4479 31.9227,39.7812 31.5,37.5C 31.5,36.8333 31.8333,36.5 32.5,36.5 Z"/></g>
<g><path style="opacity:1" fill="#bf5c3a" d="M 57.5,42.5 C 56.8333,42.5 56.5,42.8333 56.5,43.5C 55.609,42.8902 54.609,42.5569 53.5,42.5C 53.5,42.1667 53.5,41.8333 53.5,41.5C 54.7942,40.7101 55.9609,39.7101 57,38.5C 57.49,39.7932 57.6567,41.1266 57.5,42.5 Z"/></g>
<g><path style="opacity:1" fill="#eeb384" d="M 10.5,40.5 C 10.5,41.8333 10.5,43.1667 10.5,44.5C 9.83333,44.1667 9.16667,43.8333 8.5,43.5C 7.70951,42.5987 6.70951,41.9321 5.5,41.5C 5.5,40.8333 5.5,40.1667 5.5,39.5C 5.36899,38.7611 5.53566,38.0944 6,37.5C 7.3103,38.8969 8.8103,39.8969 10.5,40.5 Z"/></g>
<g><path style="opacity:1" fill="#efce07" d="M 28.5,39.5 C 28.9175,40.2216 29.5842,40.7216 30.5,41C 29.944,41.3826 29.6107,41.8826 29.5,42.5C 29.5,42.8333 29.5,43.1667 29.5,43.5C 27.5,43.5 25.5,43.5 23.5,43.5C 24.1667,42.1667 25.1667,41.1667 26.5,40.5C 27.1667,40.1667 27.8333,39.8333 28.5,39.5 Z"/></g>
<g><path style="opacity:1" fill="#df6902" d="M 41.5,39.5 C 42.404,40.209 42.7373,41.209 42.5,42.5C 40.5,42.8333 38.5,43.1667 36.5,43.5C 37.9448,41.9373 39.6115,40.604 41.5,39.5 Z"/></g>
<g><path style="opacity:1" fill="#cb5d2a" d="M 10.5,40.5 C 11.1667,40.5 11.8333,40.5 12.5,40.5C 12.5,40.8333 12.5,41.1667 12.5,41.5C 11.6679,43.7248 12.6679,45.0581 15.5,45.5C 15.5,46.5 15.5,47.5 15.5,48.5C 14.7321,49.2625 14.2321,50.2625 14,51.5C 12.9808,49.4982 12.1475,47.4982 11.5,45.5C 11.1667,45.5 10.8333,45.5 10.5,45.5C 10.5,45.1667 10.5,44.8333 10.5,44.5C 10.5,43.1667 10.5,41.8333 10.5,40.5 Z"/></g>
<g><path style="opacity:1" fill="#755d36" d="M 12.5,41.5 C 12.5,41.1667 12.5,40.8333 12.5,40.5C 12.8333,40.5 13.1667,40.5 13.5,40.5C 13.8333,40.5 14.1667,40.5 14.5,40.5C 15.5676,41.4345 16.901,41.7678 18.5,41.5C 18.8417,42.3382 19.5084,42.6716 20.5,42.5C 20.8333,42.5 21.1667,42.5 21.5,42.5C 21.5,42.8333 21.5,43.1667 21.5,43.5C 21.1667,43.5 20.8333,43.5 20.5,43.5C 18.7839,43.3713 17.1172,43.038 15.5,42.5C 14.391,42.4431 13.391,42.1098 12.5,41.5 Z"/></g>
<g><path style="opacity:1" fill="#ea9a00" d="M 38.5,37.5 C 39.5,38.1667 40.5,38.8333 41.5,39.5C 39.6115,40.604 37.9448,41.9373 36.5,43.5C 36.1667,43.5 35.8333,43.5 35.5,43.5C 34.8333,43.5 34.5,43.1667 34.5,42.5C 36.1343,41.0451 37.4676,39.3784 38.5,37.5 Z"/></g>
<g><path style="opacity:1" fill="#59210d" d="M 51.5,40.5 C 52.1667,40.8333 52.8333,41.1667 53.5,41.5C 53.5,41.8333 53.5,42.1667 53.5,42.5C 51.7839,42.6287 50.1172,42.962 48.5,43.5C 48.5,41.5 49.5,40.5 51.5,40.5 Z"/></g>
<g><path style="opacity:1" fill="#d1926b" d="M 5.5,41.5 C 6.70951,41.9321 7.70951,42.5987 8.5,43.5C 7.59872,44.2905 6.93205,45.2905 6.5,46.5C 5.54885,45.0813 5.21552,43.4147 5.5,41.5 Z"/></g>
<g><path style="opacity:1" fill="#d65920" d="M 12.5,41.5 C 13.391,42.1098 14.391,42.4431 15.5,42.5C 15.8333,43.1667 16.1667,43.8333 16.5,44.5C 16.5,45.1667 16.1667,45.5 15.5,45.5C 12.6679,45.0581 11.6679,43.7248 12.5,41.5 Z"/></g>
<g><path style="opacity:1" fill="#6f4d24" d="M 33.5,41.5 C 33.5,42.1667 33.8333,42.5 34.5,42.5C 34.5,43.1667 34.8333,43.5 35.5,43.5C 35.5,43.8333 35.5,44.1667 35.5,44.5C 35.1667,44.5 34.8333,44.5 34.5,44.5C 32.5,44.5 30.5,44.5 28.5,44.5C 25.8333,44.5 23.1667,44.5 20.5,44.5C 20.5,44.1667 20.5,43.8333 20.5,43.5C 20.8333,43.5 21.1667,43.5 21.5,43.5C 22.1667,43.5 22.8333,43.5 23.5,43.5C 25.5,43.5 27.5,43.5 29.5,43.5C 31.1993,43.4729 32.5326,42.8062 33.5,41.5 Z"/></g>
<g><path style="opacity:1" fill="#6e3112" d="M 42.5,42.5 C 42.8333,42.5 43.1667,42.5 43.5,42.5C 43.5,43.1667 43.8333,43.5 44.5,43.5C 44.5,43.8333 44.5,44.1667 44.5,44.5C 44.1667,44.5 43.8333,44.5 43.5,44.5C 41.1667,44.5 38.8333,44.5 36.5,44.5C 36.1667,44.5 35.8333,44.5 35.5,44.5C 35.5,44.1667 35.5,43.8333 35.5,43.5C 35.8333,43.5 36.1667,43.5 36.5,43.5C 38.5,43.1667 40.5,42.8333 42.5,42.5 Z"/></g>
<g><path style="opacity:1" fill="#bf471e" d="M 20.5,44.5 C 23.1667,44.5 25.8333,44.5 28.5,44.5C 31.3382,46.3059 31.0048,47.3059 27.5,47.5C 24.7212,47.7214 22.0545,47.388 19.5,46.5C 19.3284,45.5084 19.6618,44.8417 20.5,44.5 Z"/></g>
<g><path style="opacity:1" fill="#bb5022" d="M 53.5,42.5 C 54.609,42.5569 55.609,42.8902 56.5,43.5C 56.7845,45.4147 56.4511,47.0813 55.5,48.5C 55.7148,46.8212 55.0481,45.8212 53.5,45.5C 52.1667,45.5 50.8333,45.5 49.5,45.5C 48.0813,44.5489 46.4147,44.2155 44.5,44.5C 44.5,44.1667 44.5,43.8333 44.5,43.5C 45.8333,43.5 47.1667,43.5 48.5,43.5C 50.1172,42.962 51.7839,42.6287 53.5,42.5 Z"/></g>
<g><path style="opacity:1" fill="#dc8f60" d="M 8.5,43.5 C 9.16667,43.8333 9.83333,44.1667 10.5,44.5C 10.5,44.8333 10.5,45.1667 10.5,45.5C 8.85637,45.8102 7.85637,46.8102 7.5,48.5C 6.66175,48.1583 6.32842,47.4916 6.5,46.5C 6.93205,45.2905 7.59872,44.2905 8.5,43.5 Z"/></g>
<g><path style="opacity:1" fill="#c06840" d="M 15.5,42.5 C 17.1172,43.038 18.7839,43.3713 20.5,43.5C 20.5,43.8333 20.5,44.1667 20.5,44.5C 19.6618,44.8417 19.3284,45.5084 19.5,46.5C 19.1667,46.5 18.8333,46.5 18.5,46.5C 18.1667,45.5 17.5,44.8333 16.5,44.5C 16.1667,43.8333 15.8333,43.1667 15.5,42.5 Z"/></g>
<g><path style="opacity:1" fill="#b14722" d="M 36.5,44.5 C 38.8333,44.5 41.1667,44.5 43.5,44.5C 45.0993,46.7288 47.0993,47.0622 49.5,45.5C 50.8333,45.5 52.1667,45.5 53.5,45.5C 52.1667,46.1667 50.8333,46.8333 49.5,47.5C 48.8333,47.5 48.1667,47.5 47.5,47.5C 46.1667,47.5 44.8333,47.5 43.5,47.5C 42.1214,45.4031 40.4547,45.0698 38.5,46.5C 37.5,46.1667 36.8333,45.5 36.5,44.5 Z"/></g>
<g><path style="opacity:1" fill="#de6c3a" d="M 43.5,44.5 C 43.8333,44.5 44.1667,44.5 44.5,44.5C 46.4147,44.2155 48.0813,44.5489 49.5,45.5C 47.0993,47.0622 45.0993,46.7288 43.5,44.5 Z"/></g>
<g><path style="opacity:0.078" fill="#2a1a14" d="M 4.5,39.5 C 4.83333,39.5 5.16667,39.5 5.5,39.5C 5.5,40.1667 5.5,40.8333 5.5,41.5C 5.21552,43.4147 5.54885,45.0813 6.5,46.5C 6.32842,47.4916 6.66175,48.1583 7.5,48.5C 7.5,49.5 7.5,50.5 7.5,51.5C 7.16667,51.5 6.83333,51.5 6.5,51.5C 5.07619,49.4855 4.40953,47.1522 4.5,44.5C 4.5,42.8333 4.5,41.1667 4.5,39.5 Z"/></g>
<g><path style="opacity:1" fill="#e8d6b4" d="M 10.5,45.5 C 10.8333,45.5 11.1667,45.5 11.5,45.5C 11.5,46.5 11.5,47.5 11.5,48.5C 10.1667,48.5 8.83333,48.5 7.5,48.5C 7.85637,46.8102 8.85637,45.8102 10.5,45.5 Z"/></g>
<g><path style="opacity:1" fill="#a04422" d="M 34.5,44.5 C 34.8333,44.5 35.1667,44.5 35.5,44.5C 35.8333,44.5 36.1667,44.5 36.5,44.5C 36.8333,45.5 37.5,46.1667 38.5,46.5C 38.8417,47.3382 39.5084,47.6716 40.5,47.5C 38.5,48.1667 36.5,48.8333 34.5,49.5C 33.391,49.4431 32.391,49.1098 31.5,48.5C 32.7175,47.8386 34.0508,47.1719 35.5,46.5C 35.1373,45.8165 34.8039,45.1499 34.5,44.5 Z"/></g>
<g><path style="opacity:1" fill="#d46637" d="M 43.5,47.5 C 42.8333,47.5 42.1667,47.5 41.5,47.5C 41.1667,47.5 40.8333,47.5 40.5,47.5C 39.5084,47.6716 38.8417,47.3382 38.5,46.5C 40.4547,45.0698 42.1214,45.4031 43.5,47.5 Z"/></g>
<g><path style="opacity:1" fill="#a33912" d="M 16.5,44.5 C 17.5,44.8333 18.1667,45.5 18.5,46.5C 18.5,47.1667 18.5,47.8333 18.5,48.5C 17.8333,48.5 17.1667,48.5 16.5,48.5C 16.1667,48.5 15.8333,48.5 15.5,48.5C 15.5,47.5 15.5,46.5 15.5,45.5C 16.1667,45.5 16.5,45.1667 16.5,44.5 Z"/></g>
<g><path style="opacity:1" fill="#8c3414" d="M 18.5,46.5 C 18.8333,46.5 19.1667,46.5 19.5,46.5C 22.0545,47.388 24.7212,47.7214 27.5,47.5C 26.791,48.404 25.791,48.7373 24.5,48.5C 22.5,48.5 20.5,48.5 18.5,48.5C 18.5,47.8333 18.5,47.1667 18.5,46.5 Z"/></g>
<g><path style="opacity:1" fill="#c05a26" d="M 53.5,45.5 C 55.0481,45.8212 55.7148,46.8212 55.5,48.5C 55.5,49.1667 55.5,49.8333 55.5,50.5C 54.0413,50.4326 52.7079,50.7659 51.5,51.5C 51.5,50.8333 51.5,50.1667 51.5,49.5C 51.5,48.1667 50.8333,47.5 49.5,47.5C 50.8333,46.8333 52.1667,46.1667 53.5,45.5 Z"/></g>
<g><path style="opacity:1" fill="#b5471a" d="M 16.5,48.5 C 17.1667,48.5 17.8333,48.5 18.5,48.5C 20.5,48.5 22.5,48.5 24.5,48.5C 24.5,48.8333 24.5,49.1667 24.5,49.5C 24.1667,49.5 23.8333,49.5 23.5,49.5C 22.5,49.5 21.5,49.5 20.5,49.5C 19.6554,50.6715 18.9887,52.0048 18.5,53.5C 17.5,53.5 16.5,53.5 15.5,53.5C 16.038,51.8828 16.3713,50.2161 16.5,48.5 Z"/></g>
<g><path style="opacity:1" fill="#d7622c" d="M 23.5,49.5 C 23.8333,49.5 24.1667,49.5 24.5,49.5C 25.1667,49.5 25.8333,49.5 26.5,49.5C 26.5,50.8333 26.5,52.1667 26.5,53.5C 25.209,53.7373 24.209,53.404 23.5,52.5C 23.5,51.5 23.5,50.5 23.5,49.5 Z"/></g>
<g><path style="opacity:1" fill="#b54d1e" d="M 41.5,49.5 C 43.0481,49.8212 43.7148,50.8212 43.5,52.5C 42.5,52.5 41.5,52.5 40.5,52.5C 40.2627,51.209 40.596,50.209 41.5,49.5 Z"/></g>
<g><path style="opacity:1" fill="#de763f" d="M 47.5,48.5 C 48.8333,49.5 48.8333,50.5 47.5,51.5C 46.5084,51.3284 45.8417,51.6618 45.5,52.5C 44.5655,51.4324 44.2322,50.099 44.5,48.5C 45.5,48.5 46.5,48.5 47.5,48.5 Z"/></g>
<g><path style="opacity:1" fill="#d76224" d="M 47.5,47.5 C 48.1667,47.5 48.8333,47.5 49.5,47.5C 50.8333,47.5 51.5,48.1667 51.5,49.5C 50.3951,50.6005 49.0618,51.2671 47.5,51.5C 48.8333,50.5 48.8333,49.5 47.5,48.5C 47.5,48.1667 47.5,47.8333 47.5,47.5 Z"/></g>
<g><path style="opacity:0.109" fill="#1d1009" d="M 57.5,42.5 C 57.8333,42.5 58.1667,42.5 58.5,42.5C 58.3619,48.6617 57.3619,54.6617 55.5,60.5C 55.1667,60.5 54.8333,60.5 54.5,60.5C 54.5,58.5 54.5,56.5 54.5,54.5C 55.4345,53.4324 55.7678,52.099 55.5,50.5C 55.5,49.8333 55.5,49.1667 55.5,48.5C 56.4511,47.0813 56.7845,45.4147 56.5,43.5C 56.5,42.8333 56.8333,42.5 57.5,42.5 Z"/></g>
<g><path style="opacity:1" fill="#dfad87" d="M 7.5,48.5 C 8.83333,48.5 10.1667,48.5 11.5,48.5C 11.0825,49.2216 10.4158,49.7216 9.5,50C 11.3937,51.0793 11.727,52.4126 10.5,54C 11.5768,54.4696 12.5768,54.3029 13.5,53.5C 13.5,54.1667 13.8333,54.5 14.5,54.5C 13.1037,56.3725 11.437,56.7058 9.5,55.5C 8.39952,54.3951 7.73286,53.0618 7.5,51.5C 7.5,50.5 7.5,49.5 7.5,48.5 Z"/></g>
<g><path style="opacity:1" fill="#de7b44" d="M 11.5,45.5 C 12.1475,47.4982 12.9808,49.4982 14,51.5C 14.2321,50.2625 14.7321,49.2625 15.5,48.5C 15.8333,48.5 16.1667,48.5 16.5,48.5C 16.3713,50.2161 16.038,51.8828 15.5,53.5C 14.8333,53.5 14.1667,53.5 13.5,53.5C 12.5768,54.3029 11.5768,54.4696 10.5,54C 11.727,52.4126 11.3937,51.0793 9.5,50C 10.4158,49.7216 11.0825,49.2216 11.5,48.5C 11.5,47.5 11.5,46.5 11.5,45.5 Z"/></g>
<g><path style="opacity:1" fill="#c75321" d="M 20.5,49.5 C 21.5,49.5 22.5,49.5 23.5,49.5C 23.5,50.5 23.5,51.5 23.5,52.5C 22.5,52.5 21.5,52.5 20.5,52.5C 20.5,51.5 20.5,50.5 20.5,49.5 Z"/></g>
<g><path style="opacity:1" fill="#b84d23" d="M 28.5,44.5 C 30.5,44.5 32.5,44.5 34.5,44.5C 34.8039,45.1499 35.1373,45.8165 35.5,46.5C 34.0508,47.1719 32.7175,47.8386 31.5,48.5C 30.5084,48.3284 29.8417,48.6618 29.5,49.5C 29.7148,51.1788 29.0481,52.1788 27.5,52.5C 27.7373,51.209 27.404,50.209 26.5,49.5C 25.8333,49.5 25.1667,49.5 24.5,49.5C 24.5,49.1667 24.5,48.8333 24.5,48.5C 25.791,48.7373 26.791,48.404 27.5,47.5C 31.0048,47.3059 31.3382,46.3059 28.5,44.5 Z"/></g>
<g><path style="opacity:1" fill="#a63f17" d="M 29.5,49.5 C 31.1765,50.1834 31.8432,51.5168 31.5,53.5C 30.1667,53.5 28.8333,53.5 27.5,53.5C 27.5,53.1667 27.5,52.8333 27.5,52.5C 29.0481,52.1788 29.7148,51.1788 29.5,49.5 Z"/></g>
<g><path style="opacity:1" fill="#f49761" d="M 36.5,49.5 C 37.5,49.5 38.5,49.5 39.5,49.5C 39.5,50.5 39.5,51.5 39.5,52.5C 36.4331,52.8795 35.4331,51.8795 36.5,49.5 Z"/></g>
<g><path style="opacity:1" fill="#b74211" d="M 51.5,49.5 C 51.5,50.1667 51.5,50.8333 51.5,51.5C 51.9175,52.2216 52.5842,52.7216 53.5,53C 52.9056,53.4643 52.2389,53.631 51.5,53.5C 50.8333,53.5 50.1667,53.5 49.5,53.5C 48.1667,53.5 46.8333,53.5 45.5,53.5C 45.5,53.1667 45.5,52.8333 45.5,52.5C 45.8417,51.6618 46.5084,51.3284 47.5,51.5C 49.0618,51.2671 50.3951,50.6005 51.5,49.5 Z"/></g>
<g><path style="opacity:1" fill="#c66c40" d="M 55.5,50.5 C 55.7678,52.099 55.4345,53.4324 54.5,54.5C 53.391,54.5569 52.391,54.8902 51.5,55.5C 50.4937,55.0623 50.4937,54.3957 51.5,53.5C 52.2389,53.631 52.9056,53.4643 53.5,53C 52.5842,52.7216 51.9175,52.2216 51.5,51.5C 52.7079,50.7659 54.0413,50.4326 55.5,50.5 Z"/></g>
<g><path style="opacity:1" fill="#de6c31" d="M 29.5,49.5 C 29.8417,48.6618 30.5084,48.3284 31.5,48.5C 32.391,49.1098 33.391,49.4431 34.5,49.5C 33.7659,50.7079 33.4326,52.0413 33.5,53.5C 33.1667,53.5 32.8333,53.5 32.5,53.5C 32.1667,53.5 31.8333,53.5 31.5,53.5C 31.8432,51.5168 31.1765,50.1834 29.5,49.5 Z"/></g>
<g><path style="opacity:1" fill="#eb834a" d="M 34.5,49.5 C 35.1667,49.5 35.8333,49.5 36.5,49.5C 35.4331,51.8795 36.4331,52.8795 39.5,52.5C 37.7354,53.4614 35.7354,53.7947 33.5,53.5C 33.4326,52.0413 33.7659,50.7079 34.5,49.5 Z"/></g>
<g><path style="opacity:1" fill="#b35024" d="M 40.5,47.5 C 40.8333,47.5 41.1667,47.5 41.5,47.5C 41.5,48.1667 41.5,48.8333 41.5,49.5C 40.596,50.209 40.2627,51.209 40.5,52.5C 41.5,52.5 42.5,52.5 43.5,52.5C 43.5,52.8333 43.5,53.1667 43.5,53.5C 42.1667,54.1667 40.8333,54.8333 39.5,55.5C 37.4402,54.1888 35.2735,54.1888 33,55.5C 32.5357,54.9056 32.369,54.2389 32.5,53.5C 32.8333,53.5 33.1667,53.5 33.5,53.5C 35.7354,53.7947 37.7354,53.4614 39.5,52.5C 39.5,51.5 39.5,50.5 39.5,49.5C 38.5,49.5 37.5,49.5 36.5,49.5C 35.8333,49.5 35.1667,49.5 34.5,49.5C 36.5,48.8333 38.5,48.1667 40.5,47.5 Z"/></g>
<g><path style="opacity:1" fill="#cc6531" d="M 41.5,47.5 C 42.1667,47.5 42.8333,47.5 43.5,47.5C 44.8333,47.5 46.1667,47.5 47.5,47.5C 47.5,47.8333 47.5,48.1667 47.5,48.5C 46.5,48.5 45.5,48.5 44.5,48.5C 44.2322,50.099 44.5655,51.4324 45.5,52.5C 45.5,52.8333 45.5,53.1667 45.5,53.5C 44.8333,53.5 44.1667,53.5 43.5,53.5C 43.5,53.1667 43.5,52.8333 43.5,52.5C 43.7148,50.8212 43.0481,49.8212 41.5,49.5C 41.5,48.8333 41.5,48.1667 41.5,47.5 Z"/></g>
<g><path style="opacity:1" fill="#993816" d="M 13.5,53.5 C 14.1667,53.5 14.8333,53.5 15.5,53.5C 16.5,53.5 17.5,53.5 18.5,53.5C 18.8333,54.1667 19.1667,54.8333 19.5,55.5C 18.1667,55.5 16.8333,55.5 15.5,55.5C 15.5,54.8333 15.1667,54.5 14.5,54.5C 13.8333,54.5 13.5,54.1667 13.5,53.5 Z"/></g>
<g><path style="opacity:1" fill="#ac451a" d="M 26.5,49.5 C 27.404,50.209 27.7373,51.209 27.5,52.5C 27.5,52.8333 27.5,53.1667 27.5,53.5C 27.8807,54.9311 28.8807,55.7645 30.5,56C 29.552,56.4828 28.552,56.6495 27.5,56.5C 27.1667,56.5 26.8333,56.5 26.5,56.5C 24.3704,55.2895 22.3704,53.9561 20.5,52.5C 21.5,52.5 22.5,52.5 23.5,52.5C 24.209,53.404 25.209,53.7373 26.5,53.5C 26.5,52.1667 26.5,50.8333 26.5,49.5 Z"/></g>
<g><path style="opacity:1" fill="#d07143" d="M 43.5,53.5 C 44.1667,53.5 44.8333,53.5 45.5,53.5C 46.8333,53.5 48.1667,53.5 49.5,53.5C 47.1728,54.3657 44.8395,55.3657 42.5,56.5C 41.5,56.5 40.5,56.5 39.5,56.5C 39.5,56.1667 39.5,55.8333 39.5,55.5C 40.8333,54.8333 42.1667,54.1667 43.5,53.5 Z"/></g>
<g><path style="opacity:1" fill="#d07349" d="M 27.5,53.5 C 28.8333,53.5 30.1667,53.5 31.5,53.5C 31.7678,55.099 31.4345,56.4324 30.5,57.5C 29.5,57.5 28.5,57.5 27.5,57.5C 27.5,57.1667 27.5,56.8333 27.5,56.5C 28.552,56.6495 29.552,56.4828 30.5,56C 28.8807,55.7645 27.8807,54.9311 27.5,53.5 Z"/></g>
<g><path style="opacity:1" fill="#bb5425" d="M 49.5,53.5 C 50.1667,53.5 50.8333,53.5 51.5,53.5C 50.4937,54.3957 50.4937,55.0623 51.5,55.5C 51.5,55.8333 51.5,56.1667 51.5,56.5C 49.4727,56.3379 47.4727,56.5045 45.5,57C 46.1667,57.3333 46.8333,57.6667 47.5,58C 46.2625,58.2321 45.2625,58.7321 44.5,59.5C 44.1667,59.5 43.8333,59.5 43.5,59.5C 43.4361,58.6348 43.1027,57.6348 42.5,56.5C 44.8395,55.3657 47.1728,54.3657 49.5,53.5 Z"/></g>
<g><path style="opacity:1" fill="#c66335" d="M 20.5,49.5 C 20.5,50.5 20.5,51.5 20.5,52.5C 22.3704,53.9561 24.3704,55.2895 26.5,56.5C 24.0504,56.702 21.717,56.3686 19.5,55.5C 19.1667,54.8333 18.8333,54.1667 18.5,53.5C 18.9887,52.0048 19.6554,50.6715 20.5,49.5 Z"/></g>
<g><path style="opacity:0.19" fill="#1c0f0a" d="M 6.5,51.5 C 6.83333,51.5 7.16667,51.5 7.5,51.5C 7.73286,53.0618 8.39952,54.3951 9.5,55.5C 9.73758,57.4044 10.7376,58.7377 12.5,59.5C 12.3284,60.4916 12.6618,61.1583 13.5,61.5C 16.2869,62.4767 19.2869,62.81 22.5,62.5C 22.5,62.8333 22.5,63.1667 22.5,63.5C 19.1667,63.5 15.8333,63.5 12.5,63.5C 9.44242,60.0515 7.44242,56.0515 6.5,51.5 Z"/></g>
<g><path style="opacity:1" fill="#d76935" d="M 15.5,56.5 C 15.5,56.1667 15.5,55.8333 15.5,55.5C 16.8333,55.5 18.1667,55.5 19.5,55.5C 21.717,56.3686 24.0504,56.702 26.5,56.5C 26.8333,56.5 27.1667,56.5 27.5,56.5C 27.5,56.8333 27.5,57.1667 27.5,57.5C 27.1667,57.5 26.8333,57.5 26.5,57.5C 24.283,58.3686 21.9496,58.702 19.5,58.5C 18.713,56.8958 17.3797,56.2291 15.5,56.5 Z"/></g>
<g><path style="opacity:1" fill="#a84522" d="M 38.5,56.5 C 38.6716,57.4916 38.3382,58.1583 37.5,58.5C 36.0484,57.6981 34.3817,57.1981 32.5,57C 34.2182,56.654 35.8849,56.154 37.5,55.5C 38.1067,55.6236 38.44,55.9569 38.5,56.5 Z"/></g>
<g><path style="opacity:1" fill="#cc6f42" d="M 51.5,56.5 C 52.2389,56.369 52.9056,56.5357 53.5,57C 50.6318,58.383 47.6318,59.2163 44.5,59.5C 45.2625,58.7321 46.2625,58.2321 47.5,58C 46.8333,57.6667 46.1667,57.3333 45.5,57C 47.4727,56.5045 49.4727,56.3379 51.5,56.5 Z"/></g>
<g><path style="opacity:1" fill="#d78259" d="M 14.5,54.5 C 15.1667,54.5 15.5,54.8333 15.5,55.5C 15.5,55.8333 15.5,56.1667 15.5,56.5C 14.4937,56.9377 14.4937,57.6043 15.5,58.5C 14.209,58.2627 13.209,58.596 12.5,59.5C 10.7376,58.7377 9.73758,57.4044 9.5,55.5C 11.437,56.7058 13.1037,56.3725 14.5,54.5 Z"/></g>
<g><path style="opacity:1" fill="#c15931" d="M 15.5,56.5 C 17.3797,56.2291 18.713,56.8958 19.5,58.5C 20.8333,59.1667 22.1667,59.8333 23.5,60.5C 21.5853,60.2155 19.9187,60.5489 18.5,61.5C 18.1667,61.5 17.8333,61.5 17.5,61.5C 17.7148,59.8212 17.0481,58.8212 15.5,58.5C 14.4937,57.6043 14.4937,56.9377 15.5,56.5 Z"/></g>
<g><path style="opacity:1" fill="#c7663a" d="M 31.5,53.5 C 31.8333,53.5 32.1667,53.5 32.5,53.5C 32.369,54.2389 32.5357,54.9056 33,55.5C 35.2735,54.1888 37.4402,54.1888 39.5,55.5C 39.5,55.8333 39.5,56.1667 39.5,56.5C 39.1667,56.5 38.8333,56.5 38.5,56.5C 38.44,55.9569 38.1067,55.6236 37.5,55.5C 35.8849,56.154 34.2182,56.654 32.5,57C 34.3817,57.1981 36.0484,57.6981 37.5,58.5C 35.0504,58.298 32.717,58.6314 30.5,59.5C 29.448,59.6495 28.448,59.4828 27.5,59C 28.7375,58.7679 29.7375,58.2679 30.5,57.5C 31.4345,56.4324 31.7678,55.099 31.5,53.5 Z"/></g>
<g><path style="opacity:1" fill="#aa441f" d="M 26.5,57.5 C 26.5,58.1667 26.5,58.8333 26.5,59.5C 25.391,59.5569 24.391,59.8902 23.5,60.5C 22.1667,59.8333 20.8333,59.1667 19.5,58.5C 21.9496,58.702 24.283,58.3686 26.5,57.5 Z"/></g>
<g><path style="opacity:1" fill="#873c23" d="M 26.5,57.5 C 26.8333,57.5 27.1667,57.5 27.5,57.5C 28.5,57.5 29.5,57.5 30.5,57.5C 29.7375,58.2679 28.7375,58.7679 27.5,59C 28.448,59.4828 29.448,59.6495 30.5,59.5C 32.9479,60.4731 35.6146,60.8064 38.5,60.5C 40.1667,60.5 41.8333,60.5 43.5,60.5C 46.8333,60.5 50.1667,60.5 53.5,60.5C 50.7131,61.4767 47.7131,61.81 44.5,61.5C 37.1464,61.4792 29.8131,61.8125 22.5,62.5C 19.2869,62.81 16.2869,62.4767 13.5,61.5C 14.8333,61.5 16.1667,61.5 17.5,61.5C 17.8333,61.5 18.1667,61.5 18.5,61.5C 21.6981,62.0356 24.3647,61.369 26.5,59.5C 26.5,58.8333 26.5,58.1667 26.5,57.5 Z"/></g>
<g><path style="opacity:1" fill="#993919" d="M 38.5,56.5 C 38.8333,56.5 39.1667,56.5 39.5,56.5C 39.5674,57.9587 39.2341,59.2921 38.5,60.5C 35.6146,60.8064 32.9479,60.4731 30.5,59.5C 32.717,58.6314 35.0504,58.298 37.5,58.5C 38.3382,58.1583 38.6716,57.4916 38.5,56.5 Z"/></g>
<g><path style="opacity:1" fill="#b55a34" d="M 39.5,56.5 C 40.5,56.5 41.5,56.5 42.5,56.5C 43.1027,57.6348 43.4361,58.6348 43.5,59.5C 43.5,59.8333 43.5,60.1667 43.5,60.5C 41.8333,60.5 40.1667,60.5 38.5,60.5C 39.2341,59.2921 39.5674,57.9587 39.5,56.5 Z"/></g>
<g><path style="opacity:1" fill="#b05833" d="M 54.5,54.5 C 54.5,56.5 54.5,58.5 54.5,60.5C 54.1667,60.5 53.8333,60.5 53.5,60.5C 50.1667,60.5 46.8333,60.5 43.5,60.5C 43.5,60.1667 43.5,59.8333 43.5,59.5C 43.8333,59.5 44.1667,59.5 44.5,59.5C 47.6318,59.2163 50.6318,58.383 53.5,57C 52.9056,56.5357 52.2389,56.369 51.5,56.5C 51.5,56.1667 51.5,55.8333 51.5,55.5C 52.391,54.8902 53.391,54.5569 54.5,54.5 Z"/></g>
<g><path style="opacity:1" fill="#de7746" d="M 15.5,58.5 C 17.0481,58.8212 17.7148,59.8212 17.5,61.5C 16.1667,61.5 14.8333,61.5 13.5,61.5C 12.6618,61.1583 12.3284,60.4916 12.5,59.5C 13.209,58.596 14.209,58.2627 15.5,58.5 Z"/></g>
<g><path style="opacity:1" fill="#953618" d="M 26.5,59.5 C 24.3647,61.369 21.6981,62.0356 18.5,61.5C 19.9187,60.5489 21.5853,60.2155 23.5,60.5C 24.391,59.8902 25.391,59.5569 26.5,59.5 Z"/></g>
<g><path style="opacity:0.153" fill="#0e0302" d="M 53.5,60.5 C 53.8333,60.5 54.1667,60.5 54.5,60.5C 54.8333,60.5 55.1667,60.5 55.5,60.5C 55.3893,61.1174 55.056,61.6174 54.5,62C 52.5273,62.4955 50.5273,62.6621 48.5,62.5C 46.901,62.7678 45.5676,62.4345 44.5,61.5C 47.7131,61.81 50.7131,61.4767 53.5,60.5 Z"/></g>
<g><path style="opacity:0.125" fill="#130502" d="M 44.5,61.5 C 45.5676,62.4345 46.901,62.7678 48.5,62.5C 48.5,62.8333 48.5,63.1667 48.5,63.5C 46.8333,63.5 45.1667,63.5 43.5,63.5C 43.1667,62.1667 42.8333,62.1667 42.5,63.5C 35.8333,63.5 29.1667,63.5 22.5,63.5C 22.5,63.1667 22.5,62.8333 22.5,62.5C 29.8131,61.8125 37.1464,61.4792 44.5,61.5 Z"/></g>
</svg>
